<?xml version="1.0" standalone="no"?><!DOCTYPE svg PUBLIC "-//W3C//DTD SVG 1.1//EN" "http://www.w3.org/Graphics/SVG/1.1/DTD/svg11.dtd"><svg t="1677067499702" class="icon" viewBox="0 0 1024 1024" version="1.1" xmlns="http://www.w3.org/2000/svg" p-id="6244" xmlns:xlink="http://www.w3.org/1999/xlink" width="200" height="200"><path d="M737.557152 948.97119 557.985334 539.472702c28.777417-16.294105 49.018414-45.986357 49.018414-81.392752 0-52.475142-42.528606-95.004771-95.003747-95.004771-52.475142 0-95.003747 42.530652-95.003747 95.004771 0 35.405371 20.24202 65.098647 48.946782 81.392752l-179.569772 409.498488c-15.517415 35.547611 3.455705 64.605414 42.24822 64.605414l366.758058 0C734.171032 1013.576603 753.144152 984.5188 737.557152 948.97119zM457.863009 457.20707c0-30.685883 24.87555-55.561433 55.561433-55.561433 30.685883 0 55.56041 24.87555 55.56041 55.561433 0 30.685883-24.87555 55.561433-55.56041 55.561433C482.738559 512.768503 457.863009 487.892953 457.863009 457.20707zM333.943698 969.265398l178.063465-405.934313 177.978531 405.848355L333.943698 969.265398z" p-id="6245"></path><path d="M512 164.108638c-162.079422 0-293.89968 131.891889-293.89968 293.900703 0 85.199451 36.956703 161.372318 95.003747 215.045751l22.594601-51.486628c-40.85857-43.386136-65.906036-101.8292-65.906036-166.128645 0-133.861754 108.516506-242.37826 242.37826-242.37826S754.549152 321.578066 754.549152 455.43982c0 64.422242-25.14161 122.967636-66.138326 166.378331l22.485107 51.236941c58.047044-53.744042 95.003747-129.8463 95.003747-215.045751C805.89968 295.92992 674.079422 164.108638 512 164.108638z" p-id="6246"></path><path d="M512 10.422374c-246.856247 0-447.656553 200.801329-447.656553 447.657576 0 148.46638 72.927963 279.864012 184.577832 361.39798l23.792892-54.272068c-93.117794-71.783907-153.125493-184.41922-153.125493-311.087131 0-216.817094 175.764096-392.58119 392.58119-392.58119s392.58119 175.764096 392.58119 392.58119c0 126.783545-60.117193 239.508909-153.381319 311.282582l23.706935 54.075593c111.649869-81.462337 184.577832-212.9316 184.577832-361.39798C959.65553 211.223702 758.856247 10.422374 512 10.422374z" p-id="6247"></path></svg>