<?xml version="1.0" standalone="no"?><!DOCTYPE svg PUBLIC "-//W3C//DTD SVG 1.1//EN" "http://www.w3.org/Graphics/SVG/1.1/DTD/svg11.dtd"><svg t="1677067699030" class="icon" viewBox="0 0 1879 1024" version="1.1" xmlns="http://www.w3.org/2000/svg" p-id="1559" xmlns:xlink="http://www.w3.org/1999/xlink" width="366.9921875" height="200"><path d="M937.72948 393.322543c-64.96185 0-117.937572 53.863584-117.937572 120.157226s52.827746 120.157225 117.937572 120.157225c64.96185 0 117.937572-53.863584 117.937572-120.157225s-52.827746-120.157225-117.937572-120.157226z m0 160.110983c-21.752601 0-39.36185-17.905202-39.36185-39.953757s17.609249-39.953757 39.36185-39.953757c21.752601 0 39.36185 17.905202 39.361849 39.953757 0 22.196532-17.461272 39.953757-39.361849 39.953757z m-124.744509 114.090173c16.721387 14.057803 19.089017 39.36185 5.327168 56.379191-7.842775 9.618497-19.089017 14.649711-30.33526 14.649711-8.730636 0-17.757225-2.959538-25.008093-9.174566-63.630058-53.56763-100.180347-132.291329-100.180347-216.342197 0-83.310983 36.106358-161.886705 98.996532-215.306358 16.57341-14.20578 41.433526-11.986127 55.343353 5.031214 13.909827 17.017341 11.690173 42.321387-5.031214 56.37919-44.836994 38.178035-70.584971 94.261272-70.584971 153.747977-0.147977 60.22659 25.895954 116.457803 71.472832 154.635838z m399.833526-153.6c0 83.606936-36.106358 162.034682-98.996532 215.306359-7.250867 6.215029-16.12948 9.322543-25.008092 9.322543-11.246243 0-22.344509-4.883237-30.187283-14.501734-13.76185-17.017341-11.542197-42.17341 5.17919-56.379191 44.836994-38.178035 70.584971-94.113295 70.584971-153.747977 0-59.930636-26.043931-116.309827-71.472832-154.487861-16.721387-14.057803-19.089017-39.36185-5.327168-56.379191 14.057803-17.017341 38.621965-19.384971 55.343353-5.327167 63.482081 53.419653 99.884393 132.143353 99.884393 216.194219zM712.804624 790.788439c16.721387 14.057803 19.089017 39.36185 5.327168 56.379191-7.842775 9.618497-19.089017 14.649711-30.33526 14.649711-8.730636 0-17.757225-2.959538-25.008093-9.174566-100.03237-84.050867-157.299422-207.759538-157.299422-339.902891 0-131.107514 56.675145-254.372254 155.5237-338.275144 16.57341-14.057803 41.285549-11.986127 55.343352 5.179191 13.76185 17.017341 11.690173 42.17341-5.031214 56.37919-80.943353 68.661272-127.260116 169.433526-127.260115 276.716763 0 108.023121 47.056647 209.387283 128.739884 278.048555z m657.313295-276.568786c0 130.959538-56.675145 254.372254-155.523699 338.275145-7.398844 6.215029-16.277457 9.322543-25.15607 9.322543-11.246243 0-22.344509-4.883237-30.187283-14.353757-13.909827-17.017341-11.690173-42.17341 4.883237-56.379191 80.943353-68.661272 127.260116-169.581503 127.260116-276.86474 0-107.875145-46.908671-209.239306-128.591908-278.048555-16.721387-14.20578-19.089017-39.36185-5.327167-56.37919 13.76185-17.165318 38.769942-19.384971 55.343352-5.475145 99.884393 84.050867 157.299422 207.907514 157.299422 339.90289zM610.404624 913.165318c16.721387 14.20578 18.793064 39.36185 4.883237 56.379191-7.842775 9.47052-18.94104 14.353757-30.187283 14.353757-8.878613 0-17.905202-3.107514-25.156069-9.322543-134.510983-114.534104-211.754913-282.487861-211.754914-461.095954 0-178.756069 77.243931-346.857803 212.050867-461.243931 16.721387-14.20578 41.285549-11.986127 55.343353 5.179191 13.909827 17.017341 11.690173 42.17341-4.883237 56.379191-116.753757 99.292486-183.787283 244.901734-183.787283 399.833526 0 154.635838 67.033526 300.245087 183.491329 399.537572z m916.86474-398.797688c0 178.756069-77.243931 346.857803-211.90289 461.391908-7.398844 6.215029-16.277457 9.322543-25.156069 9.322543-11.246243 0-22.344509-4.883237-30.187284-14.353757-13.909827-17.017341-11.690173-42.17341 4.883237-56.379191C1381.660116 815.056647 1448.693642 669.299422 1448.693642 514.36763c0-155.96763-67.625434-302.316763-185.85896-401.461272-16.721387-14.057803-19.089017-39.36185-5.327168-56.37919s38.621965-19.384971 55.343353-5.475145c136.286705 114.534104 214.418497 283.375723 214.418497 463.315607z" p-id="1560"></path></svg>