<?xml version="1.0" standalone="no"?><!DOCTYPE svg PUBLIC "-//W3C//DTD SVG 1.1//EN" "http://www.w3.org/Graphics/SVG/1.1/DTD/svg11.dtd"><svg t="1677067705347" class="icon" viewBox="0 0 1024 1024" version="1.1" xmlns="http://www.w3.org/2000/svg" p-id="1867" xmlns:xlink="http://www.w3.org/1999/xlink" width="200" height="200"><path d="M840.233 958.3c-9.4 0-18.9-3.7-25.9-11.1-13.6-14.3-13-36.9 1.3-50.5 85.3-81.1 133.8-190.6 136.8-308.3 2.9-117.7-40.2-229.4-121.3-314.7-167.5-176-447-182.9-623-15.4s-182.9 447-15.4 623c5 5.3 10.2 10.4 15.4 15.4 14.3 13.6 14.9 36.2 1.3 50.5-13.6 14.3-36.2 14.9-50.5 1.3-6.1-5.8-12.1-11.8-17.9-17.9-194.7-204.6-186.6-529.4 17.9-724 204.5-194.7 529.3-186.7 723.9 17.9 94.3 99.1 144.4 229 141 365.7-3.4 136.8-59.8 264-158.9 358.3-6.9 6.6-15.8 9.8-24.7 9.8z" p-id="1868"></path><path d="M733.133 857.9c-9.7 0-19.4-4-26.5-11.8-13.2-14.6-12.1-37.2 2.5-50.5 120.2-108.8 129.6-295.1 20.8-415.4-108.8-120.1-295.1-129.4-415.4-20.7-58.3 52.7-92.5 124.9-96.4 203.4-3.9 78.5 22.9 153.7 75.6 212 6.5 7.2 13.5 14.2 20.8 20.8 14.6 13.2 15.8 35.8 2.5 50.5-13.2 14.7-35.8 15.8-50.5 2.5-9.1-8.2-17.8-16.9-25.9-25.8-65.5-72.4-98.9-166-94-263.5 5-97.6 47.6-187.4 120-252.9 149.4-135.2 381.1-123.6 516.3 25.8 135.2 149.5 123.6 381.2-25.9 516.4-6.8 6.2-15.4 9.2-23.9 9.2z" p-id="1869"></path><path d="M398.533 756.7c-7.7 0-15.5-2.5-22-7.6-52.9-41.4-83.4-103.7-83.6-171-0.1-67.3 30-129.9 82.7-171.7 45.8-36.3 102.9-52.6 160.9-45.9 58 6.7 110 35.6 146.2 81.3 74.9 94.5 59.1 232.2-35.4 307.2-15.5 12.3-38 9.7-50.2-5.8-12.3-15.5-9.7-37.9 5.8-50.2 30.8-24.4 50.2-59.4 54.7-98.5 4.5-39-6.5-77.5-30.9-108.3-24.4-30.8-59.4-50.2-98.5-54.7-39-4.5-77.5 6.5-108.3 30.9-35.5 28.2-55.8 70.3-55.7 115.6 0.1 45.2 20.6 87 56.2 114.8 15.5 12.2 18.3 34.6 6.1 50.2-6.9 9-17.4 13.7-28 13.7z" p-id="1870"></path><path d="M511.833 637.6c-32.8 0-59.5-26.7-59.5-59.5s26.7-59.5 59.5-59.5 59.6 26.7 59.6 59.5-26.7 59.5-59.6 59.5z m0-71.4c-6.6 0-11.9 5.4-11.9 11.9 0 6.6 5.3 11.9 11.9 11.9 6.6 0 11.9-5.4 11.9-11.9 0-6.6-5.3-11.9-11.9-11.9z" p-id="1871"></path><path d="M511.833 637.6c-32.8 0-59.5-26.7-59.5-59.5s26.7-59.5 59.5-59.5 59.6 26.7 59.6 59.5-26.7 59.5-59.6 59.5z m0-71.4c-6.6 0-11.9 5.4-11.9 11.9 0 6.6 5.3 11.9 11.9 11.9 6.6 0 11.9-5.4 11.9-11.9 0-6.6-5.3-11.9-11.9-11.9z" p-id="1872"></path></svg>